M48
;Layer_Color=9474304
;FILE_FORMAT=2:4
INCH,TZ
;TYPE=PLATED
T1F00S00C0.0079
T2F00S00C0.0118
T4F00S00C0.0394
T5F00S00C0.0709
T6F00S00C0.1252
T7F00S00C0.1260
;TYPE=NON_PLATED
T8F00S00C0.0472
T9F00S00C0.0669
%
T01
X787Y3150
Y5512
X3150
X5512
Y3150
X7874Y5512
X10236
X12598
X19743Y4072
X19755Y3722
X20472Y4035
X20374Y3248
X21218Y3473
X21457Y4921
X22047Y5512
X23103Y3756
X19193Y3248
X23180Y2697
X23298Y3951
X24016Y3740
X24185Y4325
X24311Y5315
X24409Y3150
X28721Y7038
X30610Y6594
X31398Y6693
X31172Y8065
X31387Y9459
X30315Y9843
X29134Y10236
X29032Y11217
X28051Y11220
X27461
X26870
X26280
X25689
X25098
X24508
X23917
X23327
X24409Y10236
X24606Y9154
X25197
X25787
X26378
X26969
X27559
X28150
X26772Y10236
X24016Y9154
X23425
X24409Y14961
X26772
X29134
X31496
X33858
Y17323
X36220
Y19685
X33858
X31496
Y17323
X29134
Y19685
X26772
Y17323
X24409
Y19685
X29823Y12303
X31496Y12598
X31988Y11122
X33858Y12598
X38583
X33858Y7874
X22835Y9154
X21654
X22047Y10236
X22146Y11220
X22736
X21555
X20965
X20374
X19587
X18996
X18406
X17815
X17224
X17323Y10236
X17323Y9154
X17874
X18150
X18898
X19488
X20079Y9449
Y8760
X19488Y7972
X18307
X18110Y7579
X18248Y12402
X17972
X17657
X17382
X19685Y12598
X22047Y14961
Y17323
Y19685
X19685Y17323
X12598
Y19685
X14961
Y22047
X17323
X12598
X10236
X8858Y22047
Y19685
X10236Y19685
Y17323
X8858Y17323
Y14961
X10450Y15059
X10236Y12598
Y10236
X12598
X12697Y11220
X13287
X13878
X14468
X7815Y12402
X7539
X6938Y12643
X6634Y12402
X6358
X5453
X5177
X4846Y12795
X3150Y12598
Y14961
Y17323
Y19685
Y22047
X4823Y21752
X6693Y22047
X6201Y22638
X6594Y23091
X6693Y19685
Y17323
Y14961
X6949Y11220
X7224
X6043Y11024
X5768
X4898Y10924
X5289Y7971
X3150Y7874
X787
Y10236
Y12598
Y14961
Y17323
Y19685
Y22047
Y24409
Y26772
X3248Y25591
Y25000
Y24409
Y23819
X6201
X6594Y23366
X7185Y23622
X6988Y24272
Y24547
X7185Y25000
X6201
X6594Y25453
Y25728
X6201Y26181
X7185Y26083
X6988Y26634
Y26909
X7363Y27511
X6201Y27362
X5020Y27264
X3354Y29331
X2857Y29334
X2559Y28937
X2756Y30118
X3936
X1476
X787Y33858
X3150
X5512
Y31496
X3150Y36220
X787
X7874
X10236
X12598
X14961
X17323
X19685
X22047
Y33858
Y31496
Y29134
Y26772
Y24409
X19685
Y26772
Y29134
Y31496
Y33858
X17323
Y31496
Y29134
Y26772
Y24409
X14961
Y26772
Y29134
Y31496
Y33858
X12598
Y31496
Y29134
Y26772
Y24409
X10236
X8858Y24409
X10236Y26772
Y29134
Y31496
Y33858
X7874
Y31496
Y29134
X24409
X26772
X29134
X31496
X33858
X36220
X37642Y29202
X37757Y29390
X37992
X38189
X38386
X38287Y30315
X37598Y30079
X36220Y31496
Y33858
X33858
Y36220
X31496
Y33858
Y31496
X33858
Y26772
X36220
X33858Y24409
X31496
Y26772
X29134
Y24409
X26772
Y26772
X24409
Y24409
Y31496
X26772
X29134
Y33858
Y36220
X26772
Y33858
X24409
Y36220
X39325Y29762
X38780Y28771
T02
X13583Y4232
X14764
X15846
X15551Y5709
Y6102
X15157
X14764
Y5709
X15157
X17224Y5906
Y6496
X17520Y6201
X17815Y5906
X18110Y5610
X17815Y5315
X18406
X18701Y5020
X18406Y4724
X18701Y4429
Y3346
X18406
X18110
Y3051
Y2756
Y2461
X18406
X18701
Y2756
X18406
Y3051
X18701
X19354Y2559
X20136
X20768Y2854
X21063
X21654Y7185
X17520Y5610
X18110Y5020
X23228Y6398
X24275Y6299
X24465Y2559
X25453
X23321Y3176
X28150Y6102
X34843Y7185
X35630
X36417
X37205
X38976Y6988
Y7677
Y12402
X39567Y12894
Y13976
X38976Y13484
X39075Y16339
Y17520
Y18701
Y19882
Y21063
Y22244
X38484Y21654
Y20472
Y19291
X37894Y19882
Y18701
Y17520
Y16339
X38484Y16929
Y18110
Y15748
X37894Y15157
X37303Y14567
Y15748
X36713Y15157
Y13976
X36122Y13386
X35531Y13976
X36122Y14567
Y11024
Y10433
Y9843
Y9252
X35531
Y9843
Y10433
Y11024
X34055Y11220
X33268
X33661Y10827
X32874
X33268Y10433
X34055
Y9646
X33661Y9252
X33268Y9646
X33661Y10039
X32874
Y9252
X34843Y7972
X35236Y7579
X36024
X36811
X37205Y7972
X36417
X35630
X32189Y12452
Y12746
X32185Y13040
Y13334
X37883Y21072
X37894Y22244
X14075Y9646
X13780
X13484
X13189
X12894
X12598
Y9154
X12008
X13189
X13780
X14370
X10236
X8071
X7972Y13287
X6102Y10630
X6299Y9154
X6890
X7480
X5671Y28254
X4823Y30118
X3043Y30984
X3248Y27559
X886Y29134
X38484Y31102
X38287Y26732
Y26339
X38484Y26535
Y26142
X38287Y25945
X38484Y25197
Y24016
X39075Y25689
T04
X2008Y33110
Y33898
Y34685
Y35472
T05
X37410Y33089
Y34743
Y36396
Y38050
X39063
Y36396
Y34743
Y33089
T06
X2756Y3031
X1969Y37697
T07
X6004Y35728
X35531
T08
X36909Y9744
T09
X4626Y9744
M30
