G04*
G04 #@! TF.GenerationSoftware,Altium Limited,Altium Designer,21.5.1 (32)*
G04*
G04 Layer_Color=16711935*
%FSLAX25Y25*%
%MOIN*%
G70*
G04*
G04 #@! TF.SameCoordinates,D26129CB-67A6-4236-8345-823BA6B4C65A*
G04*
G04*
G04 #@! TF.FilePolarity,Negative*
G04*
G01*
G75*
%ADD16R,0.81890X0.23524*%
%ADD17R,0.31496X0.13583*%
%ADD22R,0.02047X0.02205*%
%ADD36R,0.02756X0.16535*%
%ADD37R,0.02756X0.12598*%
%ADD40C,0.04724*%
%ADD41C,0.06693*%
%ADD42R,0.06299X0.06299*%
%ADD43C,0.06299*%
%ADD44O,0.09055X0.05906*%
%ADD45O,0.12992X0.05906*%
%ADD46C,0.10925*%
%ADD47R,0.10925X0.10925*%
%ADD48O,0.27559X0.25197*%
%ADD49C,0.23622*%
%ADD50C,0.01772*%
D16*
X217126Y10778D02*
D03*
D17*
X147047Y24508D02*
D03*
D22*
X250591Y42874D02*
D03*
Y39803D02*
D03*
X246654Y42874D02*
D03*
Y39803D02*
D03*
D36*
X191535Y13780D02*
D03*
X203346D02*
D03*
X246654D02*
D03*
X234842D02*
D03*
X254528D02*
D03*
X250590D02*
D03*
X211221D02*
D03*
X183661D02*
D03*
X219094D02*
D03*
X207283D02*
D03*
X230906D02*
D03*
X242717D02*
D03*
X199409D02*
D03*
X215158D02*
D03*
X187598D02*
D03*
X195472D02*
D03*
X238779D02*
D03*
D37*
X179724Y15748D02*
D03*
D40*
X369094Y97441D02*
D03*
D41*
X46260D02*
D03*
D42*
X20079Y354724D02*
D03*
D43*
Y346850D02*
D03*
Y338976D02*
D03*
Y331102D02*
D03*
D44*
X13839Y282299D02*
D03*
Y225213D02*
D03*
D45*
X37303Y282299D02*
D03*
Y225213D02*
D03*
D46*
X374096Y380497D02*
D03*
Y363961D02*
D03*
X390631D02*
D03*
Y347426D02*
D03*
Y330890D02*
D03*
X374096Y347426D02*
D03*
Y330890D02*
D03*
D47*
X390631Y380497D02*
D03*
D48*
X19685Y376969D02*
D03*
X27559Y30311D02*
D03*
D49*
X355315Y357283D02*
D03*
X60039D02*
D03*
D50*
X48228Y217520D02*
D03*
X306102Y65945D02*
D03*
M02*
