G04*
G04 #@! TF.GenerationSoftware,Altium Limited,Altium Designer,21.5.1 (32)*
G04*
G04 Layer_Color=16711935*
%FSLAX25Y25*%
%MOIN*%
G70*
G04*
G04 #@! TF.SameCoordinates,D26129CB-67A6-4236-8345-823BA6B4C65A*
G04*
G04*
G04 #@! TF.FilePolarity,Positive*
G04*
G01*
G75*
%ADD13C,0.00394*%
D13*
X228740Y29331D02*
X228613Y30299D01*
X228239Y31201D01*
X227645Y31975D01*
X226870Y32570D01*
X225968Y32943D01*
X225000Y33071D01*
X224032Y32943D01*
X223130Y32570D01*
X222355Y31975D01*
X221761Y31201D01*
X221387Y30299D01*
X221260Y29331D01*
X177165Y43012D02*
X177098Y43990D01*
X176899Y44950D01*
X176570Y45874D01*
X176119Y46745D01*
X175554Y47546D01*
X174884Y48263D01*
X174124Y48882D01*
X173286Y49391D01*
X172386Y49782D01*
X171442Y50047D01*
X170471Y50180D01*
X169490D01*
X168518Y50047D01*
X167574Y49782D01*
X166675Y49391D01*
X165837Y48882D01*
X165076Y48263D01*
X164407Y47546D01*
X163841Y46745D01*
X163390Y45874D01*
X163062Y44950D01*
X162862Y43990D01*
X162795Y43012D01*
X0Y17717D02*
Y393701D01*
X401575D01*
Y50197D02*
Y393701D01*
X257087Y50197D02*
X401575D01*
X0Y17717D02*
X59055D01*
Y50197D01*
X131299D01*
Y17717D02*
Y50197D01*
Y17717D02*
X162795D01*
Y43012D01*
X177165Y1969D02*
Y43012D01*
X179134Y0D02*
X219291D01*
X221260Y1969D02*
Y29331D01*
X228740Y1969D02*
Y29331D01*
X230709Y0D02*
X255118D01*
X257087Y1969D02*
Y50197D01*
X177165Y1969D02*
X179134Y0D01*
X219291D02*
X221260Y1969D01*
X228740D02*
X230709Y0D01*
X255118D02*
X257087Y1969D01*
M02*
